<svg width="20" height="23" viewBox="0 0 20 23" fill="none" xmlns="http://www.w3.org/2000/svg">
<path d="M17 13.5052V10.1606C17 9.34276 17 8.93383 16.8478 8.56613C16.6955 8.19843 16.4065 7.90927 15.8284 7.33096L11.0919 2.59236C10.593 2.09325 10.3436 1.8437 10.0345 1.69583C9.9702 1.66508 9.9044 1.63778 9.8372 1.61406C9.5141 1.5 9.1614 1.5 8.4558 1.5C5.21082 1.5 3.58831 1.5 2.48933 2.38646C2.26731 2.56554 2.06508 2.76787 1.88607 2.98998C1 4.08943 1 5.71265 1 8.95908V13.5052C1 17.2781 1 19.1645 2.17157 20.3366C3.11466 21.2801 4.52043 21.4641 7 21.5M10 2.00022V2.50043C10 5.33009 10 6.74492 10.8787 7.62398C11.7574 8.50304 13.1716 8.50304 16 8.50304H16.5" stroke="#1D3752" stroke-width="1.5" stroke-linecap="round" stroke-linejoin="round"/>
<path d="M16 19L17.4453 19.9635C18.1297 20.4198 18.4719 20.6479 18.7359 20.5066C19 20.3653 19 19.954 19 19.1315V17.8685C19 17.046 19 16.6347 18.7359 16.4934C18.4719 16.3521 18.1297 16.5802 17.4453 17.0365L16 18M16 19V18M16 19C16 19.9346 16 20.4019 15.799 20.75C15.6674 20.978 15.478 21.1674 15.25 21.299C14.9019 21.5 14.4346 21.5 13.5 21.5H13C11.5858 21.5 10.8787 21.5 10.4393 21.0607C10 20.6213 10 19.9142 10 18.5C10 17.0858 10 16.3787 10.4393 15.9393C10.8787 15.5 11.5858 15.5 13 15.5H13.5C14.4346 15.5 14.9019 15.5 15.25 15.701C15.478 15.8326 15.6674 16.022 15.799 16.25C16 16.5981 16 17.0654 16 18" stroke="#1D3752" stroke-width="1.5" stroke-linejoin="round"/>
</svg>
