<svg width="21" height="19" viewBox="0 0 21 19" fill="none" xmlns="http://www.w3.org/2000/svg">
<path d="M10.5 5C10.5 6.933 9.11959 8.5 7.41671 8.5C5.71383 8.5 4.33337 6.933 4.33337 5C4.33337 3.067 5.71383 1.5 7.41671 1.5C9.11959 1.5 10.5 3.067 10.5 5Z" stroke="#1D3752" stroke-width="1.5"/>
<path d="M11.5278 8.5C13.2307 8.5 14.6112 6.933 14.6112 5C14.6112 3.067 13.2307 1.5 11.5278 1.5" stroke="#1D3752" stroke-width="1.5" stroke-linecap="round"/>
<path d="M11.5278 17.5H2.96295C2.01692 17.5 1.25 16.7325 1.25 15.7857C1.25 13.4188 3.16729 11.5 5.53239 11.5H8.95826C9.92232 11.5 10.812 11.8188 11.5278 12.3568" stroke="#1D3752" stroke-width="1.5" stroke-linecap="round" stroke-linejoin="round"/>
<path d="M16.6667 11.5V17.5M19.75 14.5H13.5834" stroke="#1D3752" stroke-width="1.5" stroke-linecap="round"/>
</svg>
