<svg width="22" height="21" viewBox="0 0 22 21" fill="none" xmlns="http://www.w3.org/2000/svg">
<path d="M8.55005 4.55C8.55005 4.74346 8.70676 4.9 8.90005 4.9H13.1001C13.2933 4.9 13.4501 4.74346 13.4501 4.55C13.4501 3.56977 12.8699 2.72444 12.0361 2.33308C12.2599 2.08488 12.4001 1.75976 12.4001 1.4C12.4001 0.627883 11.772 0 11 0C10.2281 0 9.60005 0.627883 9.60005 1.4C9.60005 1.75976 9.74023 2.08488 9.96395 2.33308C9.13016 2.72444 8.55005 3.56977 8.55005 4.55ZM10.3 1.4C10.3 1.01411 10.614 0.7 11 0.7C11.3861 0.7 11.7001 1.01411 11.7001 1.4C11.7001 1.78589 11.3861 2.1 11 2.1C10.614 2.1 10.3 1.78589 10.3 1.4ZM11 2.8C11.8451 2.8 12.5523 3.40225 12.7148 4.2H9.28525C9.44778 3.40225 10.155 2.8 11 2.8Z" fill="#1D3752"/>
<path d="M14.15 7.00008C14.15 7.19353 14.3067 7.35008 14.5 7.35008H18.7C18.8933 7.35008 19.05 7.19353 19.05 7.00008C19.05 6.01984 18.4699 5.17452 17.6361 4.78316C17.8598 4.53495 18 4.20984 18 3.85007C18 3.07796 17.372 2.45007 16.6 2.45007C15.8281 2.45007 15.2 3.07796 15.2 3.85007C15.2 4.20984 15.3402 4.53495 15.5639 4.78316C14.7301 5.17452 14.15 6.01984 14.15 7.00008ZM15.9 3.85007C15.9 3.46418 16.214 3.15007 16.6 3.15007C16.9861 3.15007 17.3 3.46418 17.3 3.85007C17.3 4.23596 16.9861 4.55007 16.6 4.55007C16.214 4.55007 15.9 4.23596 15.9 3.85007ZM16.6 5.25007C17.4451 5.25007 18.1523 5.85232 18.3148 6.65007H14.8852C15.0478 5.85232 15.7549 5.25007 16.6 5.25007Z" fill="#1D3752"/>
<path d="M16.6 13.65C15.8281 13.65 15.2 14.2779 15.2 15.05C15.2 15.4098 15.3402 15.7349 15.5639 15.9831C14.7301 16.3745 14.15 17.2198 14.15 18.2C14.15 18.3935 14.3067 18.55 14.5 18.55H18.7C18.8933 18.55 19.05 18.3935 19.05 18.2C19.05 17.2198 18.4699 16.3745 17.6361 15.9831C17.8598 15.7349 18 15.4098 18 15.05C18 14.2779 17.372 13.65 16.6 13.65ZM15.9 15.05C15.9 14.6641 16.214 14.35 16.6 14.35C16.9861 14.35 17.3 14.6641 17.3 15.05C17.3 15.4359 16.9861 15.75 16.6 15.75C16.214 15.75 15.9 15.4359 15.9 15.05ZM18.3148 17.85H14.8852C15.0478 17.0523 15.7549 16.45 16.6 16.45C17.4451 16.45 18.1523 17.0523 18.3148 17.85Z" fill="#1D3752"/>
<path d="M8.55005 20.65C8.55005 20.8435 8.70676 21 8.90005 21H13.1001C13.2933 21 13.4501 20.8435 13.4501 20.65C13.4501 19.6698 12.8699 18.8245 12.0361 18.4331C12.2599 18.1849 12.4001 17.8598 12.4001 17.5C12.4001 16.7279 11.772 16.1 11 16.1C10.2281 16.1 9.60005 16.7279 9.60005 17.5C9.60005 17.8598 9.74023 18.1849 9.96395 18.4331C9.13016 18.8245 8.55005 19.6698 8.55005 20.65ZM10.3 17.5C10.3 17.1141 10.614 16.8 11 16.8C11.3861 16.8 11.7001 17.1141 11.7001 17.5C11.7001 17.8859 11.3861 18.2 11 18.2C10.614 18.2 10.3 17.8859 10.3 17.5ZM11 18.9C11.8451 18.9 12.5523 19.5023 12.7148 20.3H9.28525C9.44778 19.5023 10.155 18.9 11 18.9Z" fill="#1D3752"/>
<path d="M20.0861 10.383C20.3098 10.1348 20.45 9.80969 20.45 9.44993C20.45 8.67781 19.8219 8.04993 19.05 8.04993C18.278 8.04993 17.65 8.67781 17.65 9.44993C17.65 9.80969 17.7902 10.1348 18.0139 10.383C17.1801 10.7744 16.6 11.6197 16.6 12.5999C16.6 12.7934 16.7567 12.9499 16.95 12.9499H21.15C21.3433 12.9499 21.5 12.7934 21.5 12.5999C21.5 11.6197 20.9199 10.7744 20.0861 10.383ZM18.35 9.44993C18.35 9.06404 18.6639 8.74993 19.05 8.74993C19.436 8.74993 19.75 9.06404 19.75 9.44993C19.75 9.83582 19.436 10.1499 19.05 10.1499C18.6639 10.1499 18.35 9.83582 18.35 9.44993ZM17.3352 12.2499C17.4977 11.4522 18.2049 10.8499 19.05 10.8499C19.8951 10.8499 20.6022 11.4522 20.7648 12.2499H17.3352Z" fill="#1D3752"/>
<path d="M2.94995 7.00008C2.94995 7.19353 3.10666 7.35008 3.29995 7.35008H7.49995C7.69324 7.35008 7.84995 7.19353 7.84995 7.00008C7.84995 6.01984 7.26984 5.17452 6.43605 4.78316C6.65977 4.53495 6.79995 4.20984 6.79995 3.85007C6.79995 3.07796 6.1719 2.45007 5.39995 2.45007C4.628 2.45007 3.99995 3.07796 3.99995 3.85007C3.99995 4.20984 4.14013 4.53495 4.36386 4.78316C3.53007 5.17452 2.94995 6.01984 2.94995 7.00008ZM4.69995 3.85007C4.69995 3.46418 5.01389 3.15007 5.39995 3.15007C5.78601 3.15007 6.09995 3.46418 6.09995 3.85007C6.09995 4.23596 5.78601 4.55007 5.39995 4.55007C5.01389 4.55007 4.69995 4.23596 4.69995 3.85007ZM5.39995 5.25007C6.24504 5.25007 6.95222 5.85232 7.11475 6.65007H3.68515C3.84768 5.85232 4.55486 5.25007 5.39995 5.25007Z" fill="#1D3752"/>
<path d="M2.94995 18.2C2.94995 18.3935 3.10666 18.55 3.29995 18.55H7.49995C7.69324 18.55 7.84995 18.3935 7.84995 18.2C7.84995 17.2198 7.26984 16.3745 6.43605 15.9831C6.65977 15.7349 6.79995 15.4098 6.79995 15.05C6.79995 14.2779 6.1719 13.65 5.39995 13.65C4.628 13.65 3.99995 14.2779 3.99995 15.05C3.99995 15.4098 4.14013 15.7349 4.36386 15.9831C3.53007 16.3745 2.94995 17.2198 2.94995 18.2ZM4.69995 15.05C4.69995 14.6641 5.01389 14.35 5.39995 14.35C5.78601 14.35 6.09995 14.6641 6.09995 15.05C6.09995 15.4359 5.78601 15.75 5.39995 15.75C5.01389 15.75 4.69995 15.4359 4.69995 15.05ZM5.39995 16.45C6.24504 16.45 6.95222 17.0523 7.11475 17.85H3.68515C3.84768 17.0523 4.55486 16.45 5.39995 16.45Z" fill="#1D3752"/>
<path d="M0.5 12.5999C0.5 12.7934 0.656713 12.9499 0.85 12.9499H5.05C5.24329 12.9499 5.4 12.7934 5.4 12.5999C5.4 11.6197 4.81989 10.7744 3.9861 10.383C4.20982 10.1348 4.35 9.80969 4.35 9.44993C4.35 8.67781 3.72195 8.04993 2.95 8.04993C2.17805 8.04993 1.55 8.67781 1.55 9.44993C1.55 9.80969 1.69018 10.1348 1.91391 10.383C1.08011 10.7744 0.5 11.6197 0.5 12.5999ZM2.25 9.44993C2.25 9.06404 2.56394 8.74993 2.95 8.74993C3.33606 8.74993 3.65 9.06404 3.65 9.44993C3.65 9.83582 3.33606 10.1499 2.95 10.1499C2.56394 10.1499 2.25 9.83582 2.25 9.44993ZM2.95 10.8499C3.79509 10.8499 4.50227 11.4522 4.6648 12.2499H1.23521C1.39773 11.4522 2.10491 10.8499 2.95 10.8499Z" fill="#1D3752"/>
<path d="M7.15002 10.5C7.15002 12.6229 8.87712 14.35 11 14.35C13.1229 14.35 14.85 12.6229 14.85 10.5C14.85 8.37712 13.1229 6.65002 11 6.65002C8.87712 6.65002 7.15002 8.37712 7.15002 10.5ZM11 7.35002C12.7369 7.35002 14.15 8.76301 14.15 10.5C14.15 12.237 12.7369 13.65 11 13.65C9.26319 13.65 7.85002 12.237 7.85002 10.5C7.85002 8.76301 9.26319 7.35002 11 7.35002Z" fill="#1D3752"/>
</svg>
