<svg width="21" height="21" viewBox="0 0 21 21" fill="none" xmlns="http://www.w3.org/2000/svg">
<path d="M10.5 0C8.4233 0 6.39323 0.615814 4.66652 1.76957C2.9398 2.92332 1.59399 4.5632 0.799269 6.48182C0.00454959 8.40045 -0.203386 10.5116 0.201759 12.5484C0.606904 14.5852 1.60693 16.4562 3.07538 17.9246C4.54383 19.3931 6.41475 20.3931 8.45155 20.7982C10.4884 21.2034 12.5996 20.9954 14.5182 20.2007C16.4368 19.406 18.0767 18.0602 19.2304 16.3335C20.3842 14.6068 21 12.5767 21 10.5C20.9968 7.71619 19.8896 5.04731 17.9211 3.07886C15.9527 1.11041 13.2838 0.00314963 10.5 0ZM10.5 20.3C8.56175 20.3 6.66702 19.7252 5.05541 18.6484C3.44381 17.5716 2.18772 16.041 1.44598 14.2503C0.704246 12.4596 0.510174 10.4891 0.888309 8.58811C1.26644 6.6871 2.1998 4.94091 3.57036 3.57035C4.94091 2.1998 6.6871 1.26644 8.58812 0.888304C10.4891 0.510169 12.4596 0.704242 14.2503 1.44598C16.041 2.18772 17.5716 3.44381 18.6484 5.05541C19.7252 6.66701 20.3 8.56174 20.3 10.5C20.297 13.0982 19.2636 15.5892 17.4264 17.4264C15.5892 19.2636 13.0982 20.297 10.5 20.3Z" fill="#1D3752"/>
<path d="M8.85219 5.14712C8.8847 5.17971 8.92333 5.20557 8.96585 5.22322C9.00837 5.24086 9.05396 5.24994 9.09999 5.24994C9.14603 5.24994 9.19161 5.24086 9.23414 5.22322C9.27666 5.20557 9.31528 5.17971 9.34779 5.14712L10.3372 4.15767C10.401 4.09166 10.4363 4.00325 10.4355 3.91148C10.4347 3.81971 10.3979 3.73192 10.333 3.66703C10.2681 3.60214 10.1803 3.56533 10.0885 3.56453C9.99676 3.56373 9.90835 3.59901 9.84234 3.66277L9.44999 4.05512V2.92007C9.44999 2.82724 9.41312 2.73822 9.34748 2.67258C9.28184 2.60694 9.19282 2.57007 9.09999 2.57007C9.00717 2.57007 8.91814 2.60694 8.85251 2.67258C8.78687 2.73822 8.74999 2.82724 8.74999 2.92007V4.05512L8.35764 3.66277C8.29163 3.59901 8.20322 3.56373 8.11145 3.56453C8.01968 3.56533 7.9319 3.60214 7.86701 3.66703C7.80211 3.73192 7.7653 3.81971 7.76451 3.91148C7.76371 4.00325 7.79899 4.09166 7.86274 4.15767L8.85219 5.14712ZM7.32304 6.78372C7.35843 6.6981 7.35843 6.60194 7.32304 6.51632C7.30558 6.47361 7.27975 6.43481 7.24709 6.40222L6.25764 5.41277C6.19163 5.34901 6.10322 5.31373 6.01145 5.31453C5.91968 5.31533 5.8319 5.35214 5.76701 5.41703C5.70211 5.48192 5.66531 5.56971 5.66451 5.66148C5.66371 5.75325 5.69899 5.84166 5.76274 5.90767L6.15509 6.30002H5.02004C4.92722 6.30002 4.83819 6.33689 4.77256 6.40253C4.70692 6.46817 4.67004 6.55719 4.67004 6.65002C4.67004 6.74284 4.70692 6.83187 4.77256 6.8975C4.83819 6.96314 4.92722 7.00002 5.02004 7.00002H6.15509L5.76274 7.39237C5.72932 7.42465 5.70265 7.46327 5.68431 7.50597C5.66596 7.54868 5.65631 7.5946 5.65591 7.64108C5.6555 7.68755 5.66436 7.73364 5.68196 7.77665C5.69955 7.81966 5.72554 7.85874 5.7584 7.8916C5.79127 7.92447 5.83035 7.95046 5.87336 7.96805C5.91637 7.98565 5.96246 7.99451 6.00893 7.9941C6.05541 7.9937 6.10133 7.98405 6.14404 7.9657C6.18674 7.94736 6.22536 7.92069 6.25764 7.88727L7.24709 6.89782C7.27975 6.86522 7.30558 6.82643 7.32304 6.78372ZM10.8769 6.78372C10.8944 6.82643 10.9202 6.86522 10.9529 6.89782L11.9423 7.88727C11.9746 7.92069 12.0132 7.94736 12.056 7.9657C12.0987 7.98405 12.1446 7.9937 12.1911 7.9941C12.2375 7.99451 12.2836 7.98565 12.3266 7.96805C12.3696 7.95046 12.4087 7.92447 12.4416 7.8916C12.4744 7.85874 12.5004 7.81966 12.518 7.77665C12.5356 7.73364 12.5445 7.68755 12.5441 7.64108C12.5437 7.5946 12.534 7.54868 12.5157 7.50597C12.4973 7.46327 12.4707 7.42465 12.4372 7.39237L12.0449 7.00002H13.1799C13.2728 7.00002 13.3618 6.96314 13.4274 6.8975C13.4931 6.83187 13.5299 6.74284 13.5299 6.65002C13.5299 6.55719 13.4931 6.46817 13.4274 6.40253C13.3618 6.33689 13.2728 6.30002 13.1799 6.30002H12.0449L12.4372 5.90767C12.4707 5.87538 12.4973 5.83676 12.5157 5.79406C12.534 5.75136 12.5437 5.70543 12.5441 5.65896C12.5445 5.61248 12.5356 5.5664 12.518 5.52338C12.5004 5.48037 12.4744 5.44129 12.4416 5.40843C12.4087 5.37557 12.3696 5.34958 12.3266 5.33198C12.2836 5.31438 12.2375 5.30553 12.1911 5.30593C12.1446 5.30633 12.0987 5.31599 12.056 5.33433C12.0132 5.35267 11.9746 5.37934 11.9423 5.41277L10.9529 6.40222C10.9202 6.43481 10.8944 6.47361 10.8769 6.51632C10.8416 6.60194 10.8416 6.6981 10.8769 6.78372Z" fill="#1D3752"/>
<path d="M13.3 9.44995C13.1191 9.45098 12.9417 9.49924 12.7852 9.58995C12.6434 9.36068 12.4178 9.19581 12.1563 9.13043C11.8948 9.06506 11.6181 9.10436 11.3852 9.23995C11.2604 9.03699 11.0691 8.88361 10.8438 8.80599C10.6185 8.72838 10.3733 8.73133 10.15 8.81435V6.99995C10.15 6.72147 10.0394 6.4544 9.84249 6.25749C9.64557 6.06058 9.3785 5.94995 9.10002 5.94995C8.82155 5.94995 8.55447 6.06058 8.35756 6.25749C8.16065 6.4544 8.05002 6.72147 8.05002 6.99995V10.2144C7.93793 10.1729 7.81953 10.1511 7.70002 10.15C7.42155 10.15 7.15448 10.2606 6.95756 10.4575C6.76065 10.6544 6.65002 10.9215 6.65002 11.1999V13.6499C6.65002 14.671 7.05565 15.6503 7.77766 16.3723C8.49968 17.0943 9.47894 17.4999 10.5 17.4999C11.5211 17.4999 12.5004 17.0943 13.2224 16.3723C13.9444 15.6503 14.35 14.671 14.35 13.6499V10.4999C14.35 10.2215 14.2394 9.9544 14.0425 9.75749C13.8456 9.56057 13.5785 9.44995 13.3 9.44995ZM13.65 13.6499C13.65 14.4854 13.3181 15.2866 12.7274 15.8773C12.1367 16.4681 11.3355 16.7999 10.5 16.7999C9.66459 16.7999 8.86338 16.4681 8.27264 15.8773C7.6819 15.2866 7.35002 14.4854 7.35002 13.6499V11.1999C7.35002 11.1071 7.3869 11.0181 7.45254 10.9525C7.51817 10.8868 7.6072 10.8499 7.70002 10.8499C7.79285 10.8499 7.88187 10.8868 7.94751 10.9525C8.01315 11.0181 8.05002 11.1071 8.05002 11.1999V12.2499C8.05002 12.3428 8.0869 12.4318 8.15254 12.4974C8.21817 12.5631 8.3072 12.5999 8.40002 12.5999C8.49285 12.5999 8.58187 12.5631 8.64751 12.4974C8.71315 12.4318 8.75002 12.3428 8.75002 12.2499V6.99995C8.75002 6.90713 8.7869 6.8181 8.85254 6.75246C8.91817 6.68683 9.0072 6.64995 9.10002 6.64995C9.19285 6.64995 9.28187 6.68683 9.34751 6.75246C9.41315 6.8181 9.45002 6.90713 9.45002 6.99995V10.8499C9.45002 10.9428 9.4869 11.0318 9.55254 11.0974C9.61817 11.1631 9.7072 11.1999 9.80002 11.1999C9.89285 11.1999 9.98187 11.1631 10.0475 11.0974C10.1131 11.0318 10.15 10.9428 10.15 10.8499V9.79995C10.15 9.70712 10.1869 9.6181 10.2525 9.55246C10.3182 9.48682 10.4072 9.44995 10.5 9.44995C10.5928 9.44995 10.6819 9.48682 10.7475 9.55246C10.8131 9.6181 10.85 9.70712 10.85 9.79995V11.1999C10.85 11.2928 10.8869 11.3818 10.9525 11.4474C11.0182 11.5131 11.1072 11.5499 11.2 11.5499C11.2928 11.5499 11.3819 11.5131 11.4475 11.4474C11.5131 11.3818 11.55 11.2928 11.55 11.1999V10.15C11.55 10.0571 11.5869 9.9681 11.6525 9.90246C11.7182 9.83682 11.8072 9.79995 11.9 9.79995C11.9928 9.79995 12.0819 9.83682 12.1475 9.90246C12.2131 9.9681 12.25 10.0571 12.25 10.15V11.5499C12.25 11.6428 12.2869 11.7318 12.3525 11.7974C12.4182 11.8631 12.5072 11.8999 12.6 11.8999C12.6928 11.8999 12.7819 11.8631 12.8475 11.7974C12.9131 11.7318 12.95 11.6428 12.95 11.5499V10.4999C12.95 10.4071 12.9869 10.3181 13.0525 10.2525C13.1182 10.1868 13.2072 10.15 13.3 10.15C13.3928 10.15 13.4819 10.1868 13.5475 10.2525C13.6131 10.3181 13.65 10.4071 13.65 10.4999V13.6499Z" fill="#1D3752"/>
</svg>
