<svg width="102" height="102" viewBox="0 0 102 102" fill="none" xmlns="http://www.w3.org/2000/svg">
<circle cx="51" cy="51" r="51" fill="#1D3752"/>
<path d="M50.5 21C42.4137 21.009 34.6611 24.2253 28.9432 29.9432C23.2253 35.6611 20.009 43.4137 20 51.5C20.0135 59.5849 23.2313 67.3349 28.9482 73.0518C34.6651 78.7687 42.4151 81.9865 50.5 82C58.5891 82 66.3469 78.7866 72.0668 73.0668C77.7866 67.3469 81 59.5891 81 51.5C81 43.4109 77.7866 35.6531 72.0668 29.9332C66.3469 24.2134 58.5891 21 50.5 21ZM69.0513 69.0997C67.3384 65.6447 64.694 62.7371 61.4165 60.705C58.139 58.673 54.3588 57.5973 50.5025 57.5993C46.6461 57.6013 42.8671 58.681 39.5918 60.7165C36.3164 62.7521 33.6751 65.6624 31.9658 69.1192C27.4052 64.3893 24.864 58.0704 24.88 51.5C24.88 44.7052 27.5792 38.1886 32.3839 33.3839C37.1886 28.5792 43.7052 25.88 50.5 25.88C57.2948 25.88 63.8114 28.5792 68.6161 33.3839C73.4208 38.1886 76.12 44.7052 76.12 51.5C76.1353 58.0613 73.6007 64.3718 69.0513 69.0997ZM50.5 33.2C48.3284 33.2 46.2055 33.844 44.3998 35.0505C42.5942 36.257 41.1869 37.9718 40.3558 39.9781C39.5248 41.9845 39.3073 44.1922 39.731 46.3221C40.1546 48.452 41.2004 50.4085 42.736 51.944C44.2715 53.4796 46.228 54.5254 48.3579 54.949C50.4878 55.3727 52.6955 55.1553 54.7019 54.3242C56.7082 53.4931 58.423 52.0858 59.6295 50.2802C60.836 48.4745 61.48 46.3516 61.48 44.18C61.48 42.7381 61.196 41.3103 60.6442 39.9781C60.0924 38.646 59.2836 37.4356 58.264 36.416C57.2444 35.3964 56.034 34.5876 54.7019 34.0358C53.3697 33.484 51.9419 33.2 50.5 33.2Z" fill="#FFA200"/>
</svg>
