<svg width="20" height="19" viewBox="0 0 20 19" fill="none" xmlns="http://www.w3.org/2000/svg">
<path d="M14.1667 18.5C13.9457 18.5 13.7337 18.421 13.5774 18.2803C13.4211 18.1397 13.3333 17.9489 13.3333 17.75C13.3333 16.3576 12.7188 15.0223 11.6248 14.0377C10.5308 13.0531 9.0471 12.5 7.5 12.5C5.9529 12.5 4.46917 13.0531 3.37521 14.0377C2.28125 15.0223 1.66667 16.3576 1.66667 17.75C1.66667 17.9489 1.57887 18.1397 1.42259 18.2803C1.26631 18.421 1.05435 18.5 0.833333 18.5C0.61232 18.5 0.400358 18.421 0.244078 18.2803C0.0877974 18.1397 0 17.9489 0 17.75C0 15.9598 0.790176 14.2429 2.1967 12.977C3.60322 11.7112 5.51088 11 7.5 11C9.48912 11 11.3968 11.7112 12.8033 12.977C14.2098 14.2429 15 15.9598 15 17.75C15 17.9489 14.9122 18.1397 14.7559 18.2803C14.5996 18.421 14.3877 18.5 14.1667 18.5ZM19.1667 10.25H14.1667C13.9457 10.25 13.7337 10.171 13.5774 10.0303C13.4211 9.88968 13.3333 9.69891 13.3333 9.5C13.3333 9.30109 13.4211 9.11032 13.5774 8.96967C13.7337 8.82902 13.9457 8.75 14.1667 8.75H19.1667C19.3877 8.75 19.5996 8.82902 19.7559 8.96967C19.9122 9.11032 20 9.30109 20 9.5C20 9.69891 19.9122 9.88968 19.7559 10.0303C19.5996 10.171 19.3877 10.25 19.1667 10.25ZM7.5 9.5C6.51109 9.5 5.54439 9.23608 4.72215 8.74161C3.8999 8.24715 3.25904 7.54434 2.8806 6.72208C2.50216 5.89981 2.40315 4.99501 2.59607 4.1221C2.789 3.24918 3.2652 2.44736 3.96447 1.81802C4.66373 1.18869 5.55464 0.760102 6.52455 0.586468C7.49445 0.412835 8.49979 0.50195 9.41342 0.842544C10.327 1.18314 11.1079 1.75991 11.6573 2.49994C12.2068 3.23996 12.5 4.10999 12.5 5C12.4987 6.19311 11.9715 7.33701 11.0341 8.18067C10.0967 9.02432 8.82568 9.49881 7.5 9.5ZM7.5 2C6.84073 2 6.19626 2.17595 5.6481 2.50559C5.09994 2.83524 4.67269 3.30377 4.4204 3.85195C4.16811 4.40013 4.1021 5.00333 4.23072 5.58527C4.35933 6.16722 4.6768 6.70176 5.14298 7.12132C5.60915 7.54088 6.2031 7.8266 6.8497 7.94236C7.4963 8.05811 8.16652 7.9987 8.77561 7.77164C9.3847 7.54458 9.90529 7.16006 10.2716 6.66671C10.6378 6.17336 10.8333 5.59335 10.8333 5C10.8333 4.20435 10.4821 3.44129 9.85702 2.87868C9.2319 2.31607 8.38406 2 7.5 2Z" fill="#1D3752"/>
</svg>
