<svg width="21" height="21" viewBox="0 0 21 21" fill="none" xmlns="http://www.w3.org/2000/svg">
<path d="M8.31188 20.9991C8.29438 21.0009 8.32938 20.9991 8.31188 20.9991V20.9991ZM16.6253 9.6246C18.0726 9.6246 19.2504 10.8023 19.2504 12.2495C19.2504 13.6967 18.0726 14.8744 16.6253 14.8744C15.1781 14.8744 14.0003 13.6967 14.0003 12.2495C14.0003 10.8023 15.1781 9.6246 16.6253 9.6246ZM14.8753 12.2495C14.8753 13.2146 15.6602 13.9994 16.6253 13.9994C17.5905 13.9994 18.3754 13.2146 18.3754 12.2495C18.3754 11.2844 17.5905 10.4996 16.6253 10.4996C15.6602 10.4996 14.8753 11.2844 14.8753 12.2495ZM1.7502 12.2495C1.7502 10.8023 2.92796 9.6246 4.37522 9.6246C5.82249 9.6246 7.00025 10.8023 7.00025 12.2495C7.00025 13.6967 5.82249 14.8744 4.37522 14.8744C2.92796 14.8744 1.7502 13.6967 1.7502 12.2495ZM2.62521 12.2495C2.62521 13.2146 3.41009 13.9994 4.37522 13.9994C5.34036 13.9994 6.12524 13.2146 6.12524 12.2495C6.12524 11.2844 5.34036 10.4996 4.37522 10.4996C3.41009 10.4996 2.62521 11.2844 2.62521 12.2495ZM4.37522 16.6243C2.13345 16.6243 0.254811 18.2955 0.00280904 20.5126C-0.0243162 20.7524 0.14806 20.9694 0.387813 20.9965C0.62144 21.0245 0.844567 20.8521 0.872567 20.6115C1.07294 18.838 2.57971 17.5001 4.37522 17.5001C6.17074 17.5001 7.67663 18.838 7.87788 20.6115C7.90326 20.8346 8.09226 20.9991 8.31188 20.9991C8.55164 20.972 8.77476 20.7533 8.74764 20.5135C8.49564 18.2964 6.61612 16.6243 4.37522 16.6243ZM20.5629 20.9991C20.5454 21.0009 20.5804 20.9991 20.5629 20.9991V20.9991ZM20.9977 20.5126C20.7457 18.2955 18.8662 16.6243 16.6253 16.6243C14.3844 16.6243 12.5049 18.2955 12.2529 20.5126C12.2258 20.7524 12.3982 20.9694 12.6379 20.9965C12.8759 21.0245 13.0938 20.8521 13.1227 20.6115C13.3231 18.838 14.8298 17.5001 16.6253 17.5001C18.4209 17.5001 19.9267 18.838 20.128 20.6115C20.1534 20.8346 20.3432 20.9991 20.5629 20.9991C20.8026 20.972 21.0249 20.7524 20.9977 20.5126ZM12.8576 7.87467L11.09 9.40236C10.9238 9.55023 10.712 9.6246 10.5012 9.6246C10.2885 9.6246 10.075 9.54935 9.9044 9.39798L8.17451 7.87467H7.87351C6.42624 7.87467 5.24848 6.69697 5.24848 5.24978V2.62489C5.24848 1.1777 6.42624 0 7.87351 0H13.1236C14.5708 0 15.7486 1.1777 15.7486 2.62489V5.24978C15.7486 6.69697 14.5708 7.87467 13.1236 7.87467H12.8558H12.8576ZM12.6939 6.99971H13.1244C14.0896 6.99971 14.8744 6.21487 14.8744 5.24978V2.62489C14.8744 1.65981 14.0896 0.874964 13.1244 0.874964H7.87438C6.90925 0.874964 6.12436 1.65981 6.12436 2.62489V5.24978C6.12436 6.21487 6.90925 6.99971 7.87438 6.99971H8.33988C8.44664 6.99971 8.54901 7.03821 8.62864 7.10908L10.4837 8.74351L12.4069 7.10645C12.4865 7.03821 12.588 6.99971 12.693 6.99971H12.6939Z" fill="#1D3752"/>
</svg>
