<svg width="22" height="21" viewBox="0 0 22 21" fill="none" xmlns="http://www.w3.org/2000/svg">
<mask id="path-1-inside-1_272_1375" fill="white">
<path d="M0.5 10.5C0.5 16.299 5.20101 21 11 21V19.5865C5.98165 19.5865 1.91346 15.5184 1.91346 10.5H0.5ZM11 21C16.799 21 21.5 16.299 21.5 10.5H20.0865C20.0865 15.5184 16.0184 19.5865 11 19.5865V21ZM21.5 10.5C21.5 4.70101 16.799 0 11 0V1.41346C16.0184 1.41346 20.0865 5.48165 20.0865 10.5H21.5ZM11 0C5.20101 0 0.5 4.70101 0.5 10.5H1.91346C1.91346 5.48165 5.98165 1.41346 11 1.41346V0Z"/>
</mask>
<path d="M0.5 10.5C0.5 16.299 5.20101 21 11 21V19.5865C5.98165 19.5865 1.91346 15.5184 1.91346 10.5H0.5ZM11 21C16.799 21 21.5 16.299 21.5 10.5H20.0865C20.0865 15.5184 16.0184 19.5865 11 19.5865V21ZM21.5 10.5C21.5 4.70101 16.799 0 11 0V1.41346C16.0184 1.41346 20.0865 5.48165 20.0865 10.5H21.5ZM11 0C5.20101 0 0.5 4.70101 0.5 10.5H1.91346C1.91346 5.48165 5.98165 1.41346 11 1.41346V0Z" fill="#1D3752"/>
<path d="M11.75 21V19.5865H10.25V21H11.75ZM1.91346 9.75H0.5V11.25H1.91346V9.75ZM21.5 9.75H20.0865V11.25H21.5V9.75ZM10.25 0V1.41346H11.75V0H10.25ZM-1 10.5C-1 17.1274 4.37258 22.5 11 22.5V19.5C6.02944 19.5 2 15.4706 2 10.5H-1ZM11 18.0865C6.81007 18.0865 3.41346 14.6899 3.41346 10.5H0.413462C0.413462 16.3468 5.15322 21.0865 11 21.0865V18.0865ZM11 22.5C17.6274 22.5 23 17.1274 23 10.5H20C20 15.4706 15.9706 19.5 11 19.5V22.5ZM18.5865 10.5C18.5865 14.6899 15.1899 18.0865 11 18.0865V21.0865C16.8468 21.0865 21.5865 16.3468 21.5865 10.5H18.5865ZM23 10.5C23 3.87258 17.6274 -1.5 11 -1.5V1.5C15.9706 1.5 20 5.52944 20 10.5H23ZM11 2.91346C15.1899 2.91346 18.5865 6.31007 18.5865 10.5H21.5865C21.5865 4.65322 16.8468 -0.0865385 11 -0.0865385V2.91346ZM11 -1.5C4.37258 -1.5 -1 3.87258 -1 10.5H2C2 5.52944 6.02944 1.5 11 1.5V-1.5ZM3.41346 10.5C3.41346 6.31007 6.81007 2.91346 11 2.91346V-0.0865385C5.15322 -0.0865385 0.413462 4.65322 0.413462 10.5H3.41346Z" fill="#1D3752" mask="url(#path-1-inside-1_272_1375)"/>
<path d="M10.8991 7.57208V13.2259V7.57208ZM13.726 10.399H8.07214H13.726Z" fill="#1D3752"/>
<path d="M10.8991 7.57208V13.2259M13.726 10.399H8.07214" stroke="#1D3752" stroke-width="1.5" stroke-linecap="round"/>
</svg>
